PathFileType	4	(X/Y/Z)	Walk8.trc
DataRate	CameraRate	NumFrames	NumMarkers	Units	OrigDataRate	OrigDataStartFrame	OrigNumFrames
200.000000	200.000000	4	69	mm	200.000000	791	868
Frame#	Times		RCAR		LowerBodyModelVer		LMT5		LTB1		LACR1		LTB2		LFHD		LMT1		RUA1		LToe		RFHD		RASI		RElbow		LUA1		STRN		RACR1		RFA1		RTH3		CLAV		RBHD		LTH3		RWRU		LCAR		RTH2		RLFC		LTH1		RTH1		RBack		RTB2		RTB4		LTH2		RTB3		LFA1		LElbow		LWRR		LLFC		C7		RMT1		RTH4		LPSI		RToe		RTB1		LTB4		LWRU		LTH4		LElbowM		LTB3		RPSI		LMMAL		SACR		RLMAL		RMMAL		LBHD		RCAL		RMT5		RWRR		T10		LASI		LCAL		LHJC		MidPelvis		OPelvis		PELOrigin		RHJC		XPelvis		YPelvis		ZPelvis		LLMAL		RElbowM
			X1	Y1	Z1	X2	Y2	Z2	X3	Y3	Z3	X4	Y4	Z4	X5	Y5	Z5	X6	Y6	Z6	X7	Y7	Z7	X8	Y8	Z8	X9	Y9	Z9	X10	Y10	Z10	X11	Y11	Z11	X12	Y12	Z12	X13	Y13	Z13	X14	Y14	Z14	X15	Y15	Z15	X16	Y16	Z16	X17	Y17	Z17	X18	Y18	Z18	X19	Y19	Z19	X20	Y20	Z20	X21	Y21	Z21	X22	Y22	Z22	X23	Y23	Z23	X24	Y24	Z24	X25	Y25	Z25	X26	Y26	Z26	X27	Y27	Z27	X28	Y28	Z28	X29	Y29	Z29	X30	Y30	Z30	X31	Y31	Z31	X32	Y32	Z32	X33	Y33	Z33	X34	Y34	Z34	X35	Y35	Z35	X36	Y36	Z36	X37	Y37	Z37	X38	Y38	Z38	X39	Y39	Z39	X40	Y40	Z40	X41	Y41	Z41	X42	Y42	Z42	X43	Y43	Z43	X44	Y44	Z44	X45	Y45	Z45	X46	Y46	Z46	X47	Y47	Z47	X48	Y48	Z48	X49	Y49	Z49	X50	Y50	Z50	X51	Y51	Z51	X52	Y52	Z52	X53	Y53	Z53	X54	Y54	Z54	X55	Y55	Z55	X56	Y56	Z56	X57	Y57	Z57	X58	Y58	Z58	X59	Y59	Z59	X60	Y60	Z60	X61	Y61	Z61	X62	Y62	Z62	X63	Y63	Z63	X64	Y64	Z64	X65	Y65	Z65	X66	Y66	Z66	X67	Y67	Z67	X68	Y68	Z68	X69	Y69	Z69

791	3.955	944.29	797.08	322.32	9	2014	4	1093.3	24.552	-97.658	1055.8	343.71	-50.105	805.27	1348.7	-174.44	1029.4	258.91	-108.68	927.91	1569.5	-74.275	1123.6	30.718	-17.764	827.75	1185.2	243.36	1192.4	26.34	-43.97	937.63	1569.2	19.736	951.2	958.22	144.96	788.14	1063.6	278.76	766.98	1163.8	-255.52	947.74	1220.2	-19.926	830.17	1361.5	137.52	823.09	919.52	298.91	819.95	555.82	190.74	883.39	1321.4	-22.283	783.09	1534.9	54.802	947.32	591.56	-157.75	870.35	818.56	305.44	701.68	741.31	-302.38	891.62	630.02	178.33	790.6	471.11	175.34	884.65	742.5	-209.17	863.94	717.67	224.8	702.07	1301.4	106.69	639.72	281.91	176.44	651.77	260.82	118.52	968.2	694.23	-173.71	583.92	208.34	125.66	673.7	916.88	-285.87	707.02	1045.5	-267.72	716.76	788.63	-261.54	991.09	480.77	-124.84	742.85	1395.3	-6.9695	507.82	49.258	92.885	839.61	636.4	204.8	701.02	937.62	-33.069	551.4	23.526	125.89	719.79	314.48	116.83	1050.5	257.2	-51.288	659.42	802.37	-302.25	915.03	668.89	-178.31	691.65	1022.9	-188.34	1046.3	171.48	-55.75	705.21	940.62	56.641	1020.7	63.844	-0.033933	703.11	939.12	11.786	472.62	162.76	157.32	486.42	155.49	76.05	771.91	1527.8	-87.999	411.03	191.45	120.61	526.49	85.006	162.6	927.21	841.91	267.25	681.42	1125.4	4.99	955.94	950.69	-139.08	944.83	31.956	-50.278	893.79	856.97	-92.146	828.34	946.79	7.3612	953.57	954.46	2.9362	953.57	954.46	2.9362	890.56	862.09	101	1033.4	959.45	4.1385	948.61	1034.3	0.73673	952.23	956.58	82.897	1011.2	59.405	-83.077	781.86	1026.3	186.37
792	3.96	946.58	796.05	320.41	9	2014	4	1093.3	24.637	-97.762	1058.2	343.36	-50.888	811.6	1349.6	-175.6	1030.9	258.63	-109.2	933.75	1570.5	-75.603	1123.5	30.74	-17.74	833.74	1186.2	241.83	1192.4	26.033	-43.889	943.37	1570.4	18.413	957.15	959.21	143.7	793.59	1064.5	277.14	774.26	1164.6	-256.76	953.86	1221.3	-21.178	836.08	1362.5	136.22	826.95	920.15	297.23	830.59	555.23	190.07	889.44	1322.4	-23.403	788.87	1535.9	53.385	952.04	592.3	-158.9	872.9	818.68	303.91	712.41	741.56	-303.2	901.01	630.58	177.23	802.31	470.28	174.95	891.37	743.98	-210.5	871.74	717.94	223.38	708.03	1302.5	105.47	649.66	283.08	176.41	661.81	261.54	118.71	974.08	694.7	-174.55	593.01	210.15	125.68	682.74	916.9	-287.31	714.9	1045.9	-269.16	726.82	789.14	-262.41	994.64	480.91	-125.69	748.8	1396.1	-8.3469	512.13	51.093	92.683	848.83	636.21	203.69	707.33	938.64	-34.178	553.71	23.941	125.9	730.68	314.1	117.18	1052.1	256.88	-51.853	669.6	802.3	-303.66	920.71	669.99	-179.56	699.26	1023.3	-189.84	1047.2	171.2	-56.083	711.3	941.27	55.576	1020.7	63.929	-0.054118	709.32	939.96	10.699	480.78	166.43	156.96	495.06	158.55	75.762	777.84	1528.5	-89.42	420.42	196.88	119.52	530.29	86.477	162.25	929.83	841.15	265.47	687.58	1126.2	3.7299	962.52	952.18	-140.12	944.81	31.964	-50.386	900.46	858.35	-93.519	834.58	947.83	6.2423	959.84	955.69	1.7857	959.84	955.69	1.7857	896.81	863.13	99.478	1039.7	960.82	3.1685	954.75	1035.5	-0.28673	958.33	957.67	81.747	1011.2	59.45	-83.162	787.13	1027.6	184.67
793	3.965	948.84	795.06	318.46	9	2014	4	1093.2	24.726	-97.858	1060.4	343.02	-51.623	817.92	1350.5	-176.73	1032.3	258.35	-109.7	939.58	1571.6	-76.913	1123.4	30.799	-17.735	839.73	1187.2	240.34	1192.5	25.82	-43.828	949.12	1571.6	17.107	962.99	960.23	142.56	799.02	1065.5	275.57	781.55	1165.4	-257.98	959.96	1222.5	-22.385	841.95	1363.6	134.95	830.8	920.82	295.6	841.25	554.75	189.41	895.46	1323.5	-24.479	794.65	1536.9	51.996	956.6	593.01	-160.02	875.45	818.87	302.43	723.33	741.9	-304.03	910.41	631.26	176.2	814.06	469.58	174.55	898.01	745.45	-211.8	879.5	718.31	221.97	713.95	1303.6	104.27	659.88	284.29	176.35	672.1	262.31	118.86	979.84	695.13	-175.34	602.43	211.99	125.66	691.87	916.96	-288.75	722.8	1046.4	-270.61	737.02	789.72	-263.29	997.98	481.02	-126.54	754.72	1397	-9.6904	517.09	53.094	92.462	858.04	636.12	202.59	713.6	939.7	-35.35	556.77	24.491	125.9	741.79	313.81	117.51	1053.7	256.58	-52.386	679.92	802.27	-305.07	926.28	671.07	-180.79	706.86	1023.8	-191.35	1048.1	170.92	-56.399	717.32	941.97	54.443	1020.8	64.024	-0.084428	715.46	940.84	9.5464	489.34	170.05	156.58	504.05	161.59	75.441	783.76	1529.2	-90.811	430.15	202.12	118.49	534.75	87.864	161.95	932.4	840.44	263.66	693.7	1127.1	2.4724	969.02	953.66	-141.14	944.77	31.958	-50.493	907.01	859.71	-94.847	840.73	948.89	5.1276	966.01	956.95	0.70892	966.01	956.95	0.70892	902.91	864.18	98.068	1045.8	962.19	2.2845	960.81	1036.8	-1.2492	964.31	958.8	80.669	1011.2	59.493	-83.253	792.34	1028.9	183.02
794	3.97	951.08	794.11	316.47	9	2014	4	1093.2	24.815	-97.945	1062.5	342.67	-52.297	824.23	1351.4	-177.81	1033.7	258.07	-110.19	945.41	1572.6	-78.203	1123.3	30.883	-17.743	845.69	1188.1	238.88	1192.5	25.682	-43.782	954.86	1572.8	15.821	968.71	961.27	141.54	804.45	1066.5	274.04	788.85	1166.3	-259.18	966.02	1223.8	-23.546	847.77	1364.7	133.73	834.65	921.54	294.03	851.9	554.41	188.75	901.45	1324.6	-25.511	800.42	1537.9	50.636	961.01	593.69	-161.12	877.99	819.12	301	734.42	742.31	-304.87	919.79	632.06	175.23	825.82	469.01	174.12	904.57	746.9	-213.07	887.19	718.77	220.57	719.83	1304.7	103.07	670.36	285.55	176.24	682.64	263.14	118.96	985.46	695.51	-176.09	612.16	213.84	125.6	701.08	917.06	-290.2	730.72	1047	-272.06	747.35	790.38	-264.17	1001.1	481.11	-127.39	760.63	1398	-10.998	522.73	55.241	92.222	867.22	636.14	201.51	719.82	940.8	-36.586	560.68	25.192	125.89	753.1	313.63	117.78	1055	256.28	-52.875	690.37	802.29	-306.48	931.72	672.13	-182	714.47	1024.3	-192.87	1048.8	170.66	-56.689	723.27	942.71	53.242	1020.8	64.121	-0.12356	721.54	941.76	8.3282	498.29	173.6	156.17	513.38	164.58	75.081	789.67	1530	-92.17	440.18	207.13	117.52	539.95	89.2	161.69	934.9	839.78	261.84	699.78	1128	1.217	975.45	955.12	-142.13	944.73	31.941	-50.599	913.45	861.03	-96.125	846.81	949.98	4.0179	972.08	958.2	-0.29245	972.08	958.2	-0.29245	908.87	865.21	96.771	1051.9	963.54	1.4872	966.78	1038	-2.1493	970.18	959.93	79.666	1011.2	59.53	-83.348	797.5	1030.3	181.42
